<svg width="36" height="37" viewBox="0 0 36 37" fill="none" xmlns="http://www.w3.org/2000/svg">
<rect y="0.5" width="36" height="36" rx="12" fill="#FDC886"/>
<path fill-rule="evenodd" clip-rule="evenodd" d="M12.4714 17.9514C12.2052 17.9881 12 18.2197 12 18.4999C12 18.8056 12.2442 19.0535 12.5455 19.0535H22.1333L18.6698 22.5542L18.6169 22.6162C18.458 22.8326 18.475 23.1401 18.6682 23.3371C18.8808 23.5537 19.2262 23.5544 19.4396 23.3387L23.8331 18.8984C23.8547 18.8773 23.8746 18.8544 23.8925 18.8299L23.8927 18.8297C24.0519 18.6126 24.0342 18.3041 23.8396 18.1074L19.4396 13.6613L19.3783 13.6078C19.1644 13.4475 18.8614 13.466 18.6682 13.663C18.4557 13.8796 18.4564 14.2301 18.6699 14.4458L22.1342 17.9464H12.5455L12.4714 17.9514Z" fill="#232631"/>
</svg>
